<svg width="64" height="64" viewBox="0 0 64 64" fill="none" xmlns="http://www.w3.org/2000/svg">
<g clip-path="url(#clip0_489_573)">
<path d="M56.5292 41.0959L59.3875 38.2375L51.8333 30.6833L39.9917 42.525C38.9708 41.9125 37.7458 41.7083 36.5208 41.7083C32.6417 41.7083 29.375 44.975 29.375 48.8542C29.375 52.7333 32.6417 56 36.5208 56C40.4 56 43.6667 52.7333 43.6667 48.8542C43.6667 47.6292 43.2583 46.4042 42.85 45.3833L46.7292 41.5042L51.425 46.2L54.2833 43.3417L49.5875 38.6458L51.8333 36.4L56.5292 41.0959ZM36.5208 51.9167C34.8875 51.9167 33.4583 50.4875 33.4583 48.8542C33.4583 47.2208 34.8875 45.7917 36.5208 45.7917C38.1542 45.7917 39.5833 47.2208 39.5833 48.8542C39.5833 50.4875 38.1542 51.9167 36.5208 51.9167Z" fill="#C6C048"/>
<path d="M15.0833 45.7917C15.0833 37.8292 21.4125 31.5 29.375 31.5C33.4583 31.5 37.3375 33.3375 40.1958 36.4L43.2583 33.7458C41.4208 31.7042 39.3792 30.0708 36.9292 29.05C39.7875 26.8042 41.625 23.1292 41.625 19.25C41.625 12.5125 36.1125 7 29.375 7C22.6375 7 17.125 12.5125 17.125 19.25C17.125 23.1292 18.9625 26.8042 22.025 29.05C15.4917 31.9083 11 38.2375 11 45.7917V56H27.3333V51.9167H15.0833V45.7917ZM21.2083 19.25C21.2083 14.7583 24.8833 11.0833 29.375 11.0833C33.8667 11.0833 37.5417 14.7583 37.5417 19.25C37.5417 23.7417 33.8667 27.4167 29.375 27.4167C24.8833 27.4167 21.2083 23.7417 21.2083 19.25Z" fill="#C6C048"/>
</g>
<defs>
<clipPath id="clip0_489_573">
<rect width="49" height="49" fill="white" transform="translate(11 7)"/>
</clipPath>
</defs>
</svg>
