<svg width="64" height="64" viewBox="0 0 64 64" fill="none" xmlns="http://www.w3.org/2000/svg">
<path d="M44.9588 48.3702L37.8116 17.3884L41.2627 8.412C41.4775 7.85309 41.3695 7.23891 40.9721 6.76109C40.5749 6.28309 39.9369 6 39.2574 6H24.7427C24.0632 6 23.4253 6.28309 23.0279 6.76109C22.6304 7.23891 22.5224 7.85309 22.7372 8.412L26.1883 17.3884L19.0411 48.3702C18.9025 48.9709 19.1193 49.5922 19.6191 50.0255L30.5052 59.4633C30.9181 59.8211 31.4588 60 31.9999 60C32.5409 60 33.0818 59.8211 33.4945 59.4633L44.3806 50.0255C44.8806 49.5922 45.0977 48.9711 44.9588 48.3702ZM36.3247 9.66509L34.1052 15.4378H29.8949L27.6754 9.66509H36.3247ZM34.5494 21.9358L28.176 27.4613L30.1042 19.1029H33.8959L34.5494 21.9358ZM26.9802 32.6449L35.3466 25.3916L36.443 30.1444L25.3356 39.774L26.9802 32.6449ZM23.4087 48.1273L24.1398 44.9576L37.2401 33.6002L38.5303 39.1927L25.8165 50.2151L23.4087 48.1273ZM32.0001 55.5756L28.2083 52.2884L39.3277 42.6484L40.5916 48.1273L32.0001 55.5756Z" fill="#C6C048"/>
</svg>
