<svg width="64" height="64" viewBox="0 0 64 64" fill="none" xmlns="http://www.w3.org/2000/svg">
<path d="M20.2 43.6363L24.8 31.9805H57L50.1 50.6298C49.6495 51.4385 48.971 52.0924 48.1515 52.5078C47.3319 52.9231 46.4086 53.0809 45.5 52.9609H15.6C14.38 52.9609 13.21 52.4697 12.3473 51.5954C11.4846 50.721 11 49.5351 11 48.2986V15.6623C11 14.4258 11.4846 13.2399 12.3473 12.3656C13.21 11.4912 14.38 11 15.6 11H27.1L31.7 17.9935H47.8C49.02 17.9935 50.19 18.4847 51.0527 19.3591C51.9154 20.2334 52.4 21.4193 52.4 22.6558V31.9805" stroke="#C6C048" stroke-width="4" stroke-linecap="round" stroke-linejoin="round"/>
</svg>
