<svg width="64" height="64" viewBox="0 0 64 64" fill="none" xmlns="http://www.w3.org/2000/svg">
<path d="M56.9834 36.0602L57.5793 29.7284C58.0473 24.7556 58.2813 22.2692 57.4306 21.2414C56.9704 20.6854 56.3446 20.3447 55.6756 20.286C54.4388 20.1773 52.8856 21.9455 49.7791 25.482C48.1725 27.3109 47.3694 28.2253 46.4732 28.367C45.9768 28.4453 45.4709 28.3647 45.0122 28.1341C44.1849 27.7175 43.6332 26.5871 42.5297 24.3261L36.7141 12.4086C34.6291 8.13621 33.5865 6 32 6C30.4135 6 29.3709 8.13621 27.2859 12.4086L21.4702 24.3262C20.3668 26.5871 19.8151 27.7175 18.9877 28.1341C18.5292 28.3647 18.0233 28.4453 17.5268 28.367C16.6307 28.2253 15.8274 27.3109 14.2209 25.482C11.1144 21.9455 9.56116 20.1773 8.32437 20.286C7.65531 20.3447 7.02954 20.6854 6.56937 21.2414C5.71867 22.2692 5.95267 24.7556 6.4207 29.7284L7.01659 36.0602C7.99848 46.4929 8.48944 51.7093 11.5642 54.8545C14.639 58 19.2474 58 28.4643 58H35.5357C44.7525 58 49.361 58 52.4357 54.8545C55.5105 51.7093 56.0014 46.4929 56.9834 36.0602Z" fill="#C6C048"/>
</svg>
