<svg width="64" height="64" viewBox="0 0 64 64" fill="none" xmlns="http://www.w3.org/2000/svg">
<path d="M45.9987 14L40.4478 19.4917L40.9638 20.022C40.5962 20.3157 40.2241 20.6023 39.863 20.8567C39.2801 21.2687 38.7205 21.5991 38.3412 21.754C38.3167 21.7648 38.2136 21.7935 38.009 21.7926C37.6822 21.7961 37.1354 21.7137 36.4656 21.6126C35.7929 21.5123 34.9882 21.4031 34.0813 21.4021C33.2899 21.3995 32.4173 21.4944 31.4986 21.7442C30.5817 21.4953 29.7107 21.4021 28.9214 21.4031C28.0134 21.4031 27.2087 21.5124 26.5361 21.6136C25.8662 21.7147 25.3204 21.7972 24.9937 21.7936C24.7881 21.7954 24.6858 21.765 24.665 21.755C24.2603 21.5911 23.6501 21.2257 23.022 20.7735C22.6971 20.5397 22.3657 20.2836 22.0371 20.0203L22.5522 19.4919L17.0013 14.0001L3 28.3472L8.55093 33.839L10.1758 32.1741L13.7623 35.2709C13.8627 35.8647 14.052 36.4253 14.2702 36.9574C14.4122 37.296 14.568 37.6219 14.7274 37.9282C14.3806 38.4961 14.1915 39.1445 14.1933 39.8018C14.1924 40.4538 14.3734 41.1201 14.7455 41.7121C15.3112 42.6121 16.2174 43.1782 17.1959 43.3572C17.2015 43.9976 17.3807 44.6505 17.7454 45.2309C18.438 46.3325 19.6365 46.9432 20.8586 46.9413C20.9057 46.9413 20.9537 46.9342 21.0006 46.9324C21.0622 47.4447 21.2324 47.9552 21.5239 48.4191C22.2165 49.5206 23.4158 50.1315 24.6361 50.1296C24.7574 50.1296 24.8779 50.117 25 50.1054C25.0579 50.5666 25.2127 51.0269 25.4744 51.4425C26.1054 52.4456 27.1971 53.0026 28.3077 53C28.9069 53.0009 29.5207 52.8396 30.0656 52.5047L31.7296 51.4803C32.0573 51.6898 32.4012 51.8742 32.7623 52.0247C33.435 52.305 34.1619 52.4769 34.9178 52.4778C35.7469 52.4814 36.6223 52.2566 37.3755 51.7327C37.8661 51.3942 38.2816 50.9302 38.6219 50.3831C38.6744 50.3849 38.717 50.3939 38.7713 50.3948C39.1162 50.3948 39.4946 50.3437 39.8694 50.2282C40.2468 50.1145 40.6217 49.9442 41.0218 49.7178C41.9759 49.1858 42.548 48.403 42.826 47.7323C42.8875 47.5854 42.9318 47.4474 42.9717 47.3141C43.2026 47.2416 43.4235 47.1528 43.6234 47.0383C44.3612 46.6182 44.8419 45.9797 45.1379 45.3385C45.4348 44.6908 45.5652 44.0183 45.567 43.3718C45.567 43.3081 45.5588 43.2463 45.5561 43.1837C46.0386 42.9885 46.4721 42.7171 46.8415 42.3974C47.2199 42.0695 47.5376 41.6881 47.7738 41.2528C48.0093 40.8194 48.1668 40.3232 48.1677 39.7796C48.1686 39.4259 48.0952 39.0533 47.935 38.704C47.8834 38.593 47.8101 38.4909 47.7431 38.3879C48.0248 37.889 48.3115 37.3267 48.5469 36.7195C48.7235 36.26 48.872 35.7782 48.957 35.2721L52.6965 32.0435L54.4491 33.8392L60 28.3472L45.9987 14ZM18.4461 40.5962L18.3818 40.6365C18.2143 40.7387 18.0386 40.7843 17.8576 40.7852C17.5218 40.7835 17.1995 40.6213 17.0103 40.3195C16.9071 40.1539 16.86 39.9792 16.86 39.8019C16.8618 39.4678 17.0248 39.1507 17.3289 38.9636L19.5278 37.6122C19.6952 37.5092 19.8709 37.4645 20.05 37.4626C20.3877 37.4661 20.7082 37.6256 20.8983 37.9292L22.0308 37.2333L20.8983 37.93C21.0015 38.0948 21.0476 38.2685 21.0486 38.4459C21.0467 38.6788 20.9626 38.9009 20.8106 39.08L18.9221 40.2407C18.7503 40.3463 18.5936 40.469 18.4461 40.5962ZM21.3817 44.1543C21.2143 44.2564 21.0386 44.303 20.8585 44.303C20.5217 44.3013 20.1995 44.14 20.0103 43.8382C19.907 43.6726 19.8609 43.497 19.86 43.3197C19.8608 43.0887 19.945 42.8666 20.0962 42.6892L21.9855 41.5259C22.1566 41.4211 22.3114 41.2994 22.4589 41.1722L22.5277 41.131C22.6952 41.028 22.8717 40.9823 23.0501 40.9823C23.3886 40.984 23.7081 41.1453 23.8982 41.4479C24.0014 41.6136 24.0476 41.7864 24.0485 41.9647C24.0467 42.2969 23.8847 42.6158 23.5769 42.8048L21.3817 44.1543ZM27.3554 45.9921L25.1593 47.3427C24.9928 47.4449 24.8171 47.4914 24.6361 47.4914C24.3002 47.4896 23.9779 47.3284 23.7887 47.0266C23.6855 46.8601 23.6395 46.6863 23.6385 46.508C23.6412 46.174 23.8032 45.8579 24.1074 45.6698L26.3062 44.3183C26.4736 44.2153 26.6493 44.1706 26.8284 44.1706C27.1661 44.1714 27.4866 44.3327 27.6768 44.6354C27.7799 44.8012 27.8261 44.9749 27.8271 45.1531C27.8252 45.4852 27.6632 45.8022 27.3554 45.9921ZM30.76 48.1952C30.8296 48.3053 30.8595 48.42 30.8604 48.5399C30.8586 48.763 30.7509 48.9752 30.5436 49.1033L28.6579 50.2621C28.5457 50.3319 28.4298 50.3614 28.3076 50.3614C28.0813 50.3606 27.8668 50.2522 27.7391 50.0499C27.6694 49.9378 27.6395 49.8232 27.6386 49.7034C27.6413 49.4784 27.749 49.268 27.9526 49.1426H27.9535L29.841 47.982C29.956 47.9112 30.071 47.8816 30.1913 47.8816C30.4186 47.8834 30.6313 47.99 30.7589 48.1933L31.8922 47.4983L30.76 48.1952ZM45.4239 40.0051C45.3271 40.1905 45.1062 40.4322 44.8265 40.6015C44.5468 40.7727 44.2218 40.8729 43.9104 40.872C43.7999 40.872 43.6931 40.8907 43.589 40.9176C43.3989 40.8764 43.2087 40.8191 43.0215 40.7457C42.4412 40.5218 41.899 40.1591 41.5161 39.8528C41.3241 39.6997 41.1721 39.5618 41.0707 39.466L40.9584 39.3558L40.9339 39.3307L40.9303 39.3272H40.9295C40.5564 38.9259 39.9246 38.8991 39.5182 39.268C39.1117 39.6371 39.0837 40.2622 39.4576 40.6669C39.491 40.701 39.9936 41.2436 40.8164 41.8026C41.2292 42.082 41.7225 42.3669 42.29 42.5871C42.4213 42.6382 42.558 42.6856 42.6984 42.7287C42.7373 42.8155 42.7871 42.898 42.8459 42.9758L42.8432 42.9777C42.8505 42.983 42.9048 43.1533 42.9002 43.3718C42.9067 43.7362 42.7726 44.2136 42.5798 44.4768C42.4857 44.6112 42.3898 44.6962 42.2966 44.7491C42.2015 44.8011 42.1056 44.8351 41.9254 44.8378L41.8611 44.8369C41.823 44.8351 41.7869 44.8414 41.7498 44.8432C41.748 44.8432 41.7471 44.8432 41.7471 44.8432C40.8798 44.8468 40.0725 44.4787 39.4768 44.0757C39.1799 43.8769 38.9417 43.6744 38.7815 43.5259C38.7027 43.4524 38.6421 43.3915 38.605 43.3539L38.5661 43.3127L38.5598 43.3047H38.5589C38.1977 42.8945 37.5686 42.8497 37.1512 43.2071C36.733 43.5653 36.6878 44.1896 37.0498 44.6033L37.0489 44.6025C37.0879 44.6455 37.5496 45.1719 38.3526 45.7129C38.8812 46.0666 39.571 46.4329 40.3902 46.6443C40.3812 46.6676 40.3757 46.6909 40.3648 46.7142C40.2599 46.9488 40.1096 47.1906 39.7004 47.4271C39.4242 47.583 39.227 47.6644 39.0885 47.7056C38.9491 47.7468 38.8713 47.755 38.7716 47.7557C38.6423 47.7576 38.4475 47.7289 38.1235 47.6634C38.0647 47.651 38.0059 47.6474 37.947 47.6438C37.9252 47.6348 37.9045 47.6268 37.8809 47.6151C37.5496 47.461 37.1458 47.1824 36.848 46.9452C36.6986 46.8279 36.5719 46.7204 36.4849 46.6443L36.3872 46.5565L36.3646 46.535L36.36 46.5315C35.9608 46.1536 35.3271 46.1679 34.9452 46.5628C34.5641 46.9578 34.5786 47.5847 34.9778 47.9617C34.9986 47.9804 35.4195 48.38 36.0097 48.7991C36.1147 48.8726 36.2306 48.9469 36.3464 49.0203C36.1835 49.2773 36.0134 49.4538 35.8468 49.5711C35.5806 49.752 35.2909 49.8379 34.918 49.8398C34.584 49.8407 34.191 49.7592 33.7983 49.5944C33.6679 49.5407 33.5403 49.4646 33.4117 49.3939C33.4869 49.1162 33.5285 48.8287 33.5276 48.5403C33.5285 47.9465 33.3637 47.3393 33.0252 46.801C32.4504 45.8866 31.4918 45.3493 30.4878 45.2615C30.4878 45.2256 30.494 45.1899 30.494 45.1531C30.4949 44.502 30.3139 43.8339 29.9427 43.2428V43.2447C29.2494 42.1395 28.0489 41.5287 26.8287 41.5313C26.7817 41.5313 26.7336 41.5394 26.6866 41.5412C26.6251 41.028 26.4548 40.5193 26.1635 40.0554H26.1643C25.5985 39.1536 24.6915 38.5877 23.7129 38.4103C23.7067 37.7699 23.5284 37.117 23.1634 36.5366H23.1643C22.4718 35.4342 21.2705 34.8225 20.0502 34.8243C19.3903 34.8243 18.7178 35.0035 18.1194 35.3706L16.8349 36.1605C16.804 36.0907 16.7652 36.0226 16.7371 35.9527C16.5136 35.4234 16.3732 34.9013 16.3578 34.5413L16.328 33.9842L12.0309 30.273L20.1779 21.9252C20.5944 22.2629 21.0217 22.5978 21.4599 22.9113C22.1858 23.429 22.9055 23.8857 23.6406 24.192C24.1123 24.3845 24.5721 24.432 24.994 24.4329C25.6693 24.4303 26.2884 24.3156 26.9339 24.2224C26.9755 24.2153 27.0189 24.2117 27.0615 24.2053C26.1744 24.9585 25.4003 25.7735 24.7458 26.5322C24.1945 27.1726 23.7293 27.7761 23.3608 28.2687C22.997 28.7586 22.7163 29.1535 22.5932 29.3094C21.9867 30.0903 21.7261 31.0244 21.7206 31.9603C21.7233 32.8308 21.9568 33.7371 22.5634 34.5029C22.8657 34.8817 23.2676 35.2131 23.7473 35.4388C24.2263 35.6662 24.7748 35.7826 25.346 35.7826C26.0548 35.7807 26.7979 35.6107 27.5847 35.2837C30.0542 34.2502 32.5997 33.5615 34.5151 33.137C35.4729 32.9257 36.274 32.7788 36.8325 32.6865C36.9376 32.6695 37.0253 32.6552 37.1123 32.6409L45.4921 39.7878L45.4956 39.7895L45.4984 39.7941C45.4973 39.8197 45.4845 39.8941 45.4239 40.0051ZM46.3935 33.9841L46.3644 34.5412C46.3491 34.86 46.2395 35.3096 46.0557 35.7753C45.9624 36.0189 45.8484 36.2644 45.729 36.506L38.3902 30.2477C38.1051 30.0042 37.7249 29.8913 37.3511 29.9379C37.2859 29.9504 31.9033 30.6185 26.547 32.8522C26.0139 33.0751 25.6137 33.1441 25.3458 33.1423C25.1277 33.1423 24.9945 33.1038 24.8959 33.0572C24.7528 32.9882 24.6505 32.8905 24.5492 32.7034C24.4524 32.519 24.3862 32.2468 24.3872 31.9602C24.3818 31.5482 24.5303 31.129 24.6967 30.9303C24.9041 30.6652 25.1575 30.3034 25.507 29.8359C26.0256 29.1409 26.7299 28.2417 27.5699 27.3667C28.4081 26.4918 29.3831 25.6446 30.4051 25.0498C31.7874 24.2465 32.9652 24.045 34.0814 24.0413C34.7684 24.0405 35.4273 24.1255 36.0701 24.2213C36.7146 24.3154 37.3356 24.4282 38.0091 24.4318C38.4301 24.4309 38.8872 24.3834 39.3571 24.1936L39.3633 24.1918C40.0984 23.8855 40.8181 23.4287 41.544 22.9111C41.9795 22.5994 42.4086 22.2627 42.8232 21.926L50.8427 30.1429L46.3935 33.9841Z" fill="#C6C048"/>
</svg>
