<svg width="64" height="64" viewBox="0 0 64 64" fill="none" xmlns="http://www.w3.org/2000/svg">
<path fill-rule="evenodd" clip-rule="evenodd" d="M43.6 32C43.6 30.3992 44.8992 29.1 46.5 29.1H49.139C47.9094 21.8297 42.1703 16.0901 34.9 14.8605V17.5C34.9 19.1008 33.6008 20.4 32 20.4C30.3992 20.4 29.1 19.1008 29.1 17.5V14.8605C21.8297 16.0901 16.0906 21.8297 14.861 29.1H17.5C19.1008 29.1 20.4 30.3992 20.4 32C20.4 33.6008 19.1008 34.9 17.5 34.9H14.861C16.0906 42.1703 21.8297 47.9099 29.1 49.1395V46.5C29.1 44.8992 30.3992 43.6 32 43.6C33.6008 43.6 34.9 44.8992 34.9 46.5V49.1395C42.1703 47.9099 47.9094 42.1703 49.139 34.9H46.5C44.8992 34.9 43.6 33.6008 43.6 32ZM61 32C61 33.6008 59.7008 34.9 58.1 34.9H54.9999C53.6891 45.3893 45.3893 53.6895 34.9 55.0003V58.1C34.9 59.7008 33.6008 61 32 61C30.3992 61 29.1 59.7008 29.1 58.1V55.0003C18.6107 53.6895 10.3109 45.3893 9.0001 34.9H5.9C4.2992 34.9 3 33.6008 3 32C3 30.3992 4.2992 29.1 5.9 29.1H9.0001C10.3109 18.6107 18.6107 10.3105 29.1 8.99966V5.9C29.1 4.2992 30.3992 3 32 3C33.6008 3 34.9 4.2992 34.9 5.9V8.99966C45.3893 10.3105 53.6891 18.6107 54.9999 29.1H58.1C59.7008 29.1 61 30.3992 61 32ZM40.7 32C40.7 33.6008 39.4008 34.9 37.8 34.9H34.9V37.8C34.9 39.4008 33.6008 40.7 32 40.7C30.3992 40.7 29.1 39.4008 29.1 37.8V34.9H26.2C24.5992 34.9 23.3 33.6008 23.3 32C23.3 30.3992 24.5992 29.1 26.2 29.1H29.1V26.2C29.1 24.5992 30.3992 23.3 32 23.3C33.6008 23.3 34.9 24.5992 34.9 26.2V29.1H37.8C39.4008 29.1 40.7 30.3992 40.7 32Z" fill="#C6C048"/>
</svg>
