<svg width="64" height="64" viewBox="0 0 64 64" fill="none" xmlns="http://www.w3.org/2000/svg">
<path d="M12.4444 43V54M15.1667 10V21M17.8889 48.5H7M20.6111 15.5H9.72222M34.2222 10L38.9937 22.222C39.5052 23.5323 39.7611 24.1874 40.1529 24.7398C40.4999 25.2295 40.9243 25.6583 41.4092 26.0089C41.9558 26.4046 42.6045 26.6631 43.9014 27.1798L56 32L43.9014 36.8202C42.6045 37.3369 41.9558 37.5954 41.4092 37.9911C40.9243 38.3418 40.4999 38.7705 40.1529 39.2603C39.7611 39.8125 39.5052 40.4678 38.9937 41.7779L34.2222 54L29.4507 41.7779C28.9392 40.4678 28.6833 39.8125 28.2916 39.2603C27.9445 38.7705 27.5201 38.3418 27.0353 37.9911C26.4887 37.5954 25.84 37.3369 24.543 36.8202L12.4444 32L24.543 27.1798C25.84 26.6631 26.4887 26.4046 27.0353 26.0089C27.5201 25.6583 27.9445 25.2295 28.2916 24.7398C28.6833 24.1874 28.9392 23.5323 29.4507 22.222L34.2222 10Z" stroke="#C6C048" stroke-width="5" stroke-linecap="round" stroke-linejoin="round"/>
</svg>
