<svg width="64" height="64" viewBox="0 0 64 64" fill="none" xmlns="http://www.w3.org/2000/svg">
<path d="M60.1351 26.7343C59.0493 28.9251 56.5065 29.931 54.2441 29.1696C54.0716 28.9885 53.8778 28.7885 53.6642 28.573C54.1576 28.3683 54.6366 28.1196 55.096 27.8265C57.1557 26.5135 58.5787 24.4801 59.1033 22.101L54.8932 21.1801C54.6157 22.4391 53.8627 23.5151 52.7728 24.2098C51.8244 24.8144 50.7199 25.0669 49.6164 24.9403C49.4417 24.8008 49.2636 24.6605 49.082 24.5198C51.4955 22.8924 53.0943 20.1487 53.118 17.0327L48.8077 17C48.7902 19.3092 47.1385 21.2321 44.9562 21.6868C40.1718 18.8175 35.3032 17.316 30.7055 17.316C25.0712 17.316 19.0303 19.5698 13.236 23.8337C8.93545 26.9983 6.26989 30.1473 6.15849 30.2799L5 31.658L6.15849 33.0361C6.26989 33.1686 8.93557 36.3177 13.236 39.4823C19.0303 43.7462 25.0712 46 30.7055 46C36.3397 46 42.3806 43.7462 48.1749 39.4823C51.4026 37.1072 53.7094 34.7409 54.7063 33.6521C55.0632 33.6942 55.4207 33.7162 55.7766 33.7162C59.1532 33.7162 62.4068 31.8493 64 28.6349L60.1351 26.7343ZM25.6765 41.0139C18.8307 39.17 13.1834 34.1136 10.7505 31.6561C13.1816 29.1934 18.8251 24.1314 25.6919 22.2951C22.3367 24.0815 20.053 27.6038 20.053 31.6585C20.053 35.7069 22.3295 39.2248 25.6765 41.0139ZM30.7052 34.1248C29.3378 34.1248 28.2292 33.0206 28.2292 31.6584C28.2292 30.2961 29.3378 29.1919 30.7052 29.1919C32.0726 29.1919 33.1811 30.2961 33.1811 31.6584C33.1811 33.0206 32.0726 34.1248 30.7052 34.1248ZM35.7186 41.0218C39.074 39.2354 41.3576 35.7131 41.3576 31.6584C41.3576 27.6099 39.0811 24.0923 35.7346 22.3031C42.5792 24.147 48.2258 29.2022 50.6601 31.6606C48.229 34.1235 42.5856 39.1857 35.7186 41.0218Z" fill="#C6C048"/>
</svg>
